<svg width="208" height="32" viewBox="0 0 208 32" fill="none" xmlns="http://www.w3.org/2000/svg">
<path d="M18.72 9.07201C18.144 8.01601 17.352 7.21201 16.344 6.66001C15.336 6.10801 14.16 5.83201 12.816 5.83201C11.328 5.83201 10.008 6.16801 8.85599 6.84001C7.70399 7.51201 6.80399 8.47201 6.15599 9.72001C5.50799 10.968 5.18399 12.408 5.18399 14.04C5.18399 15.72 5.50799 17.184 6.15599 18.432C6.82799 19.68 7.75199 20.64 8.92799 21.312C10.104 21.984 11.472 22.32 13.032 22.32C14.952 22.32 16.524 21.816 17.748 20.808C18.972 19.776 19.776 18.348 20.16 16.524H11.52V12.672H25.128V17.064C24.792 18.816 24.072 20.436 22.968 21.924C21.864 23.412 20.436 24.612 18.684 25.524C16.956 26.412 15.012 26.856 12.852 26.856C10.428 26.856 8.23199 26.316 6.26399 25.236C4.31999 24.132 2.78399 22.608 1.65599 20.664C0.55199 18.72 -9.76026e-06 16.512 -9.76026e-06 14.04C-9.76026e-06 11.568 0.55199 9.36001 1.65599 7.41601C2.78399 5.44801 4.31999 3.92401 6.26399 2.84401C8.23199 1.74001 10.416 1.18801 12.816 1.18801C15.648 1.18801 18.108 1.88401 20.196 3.27601C22.284 4.64401 23.724 6.57601 24.516 9.07201H18.72ZM33.8968 1.43051e-05V26.64H28.8568V1.43051e-05H33.8968ZM47.7323 26.964C45.8123 26.964 44.0843 26.544 42.5483 25.704C41.0123 24.84 39.8003 23.628 38.9123 22.068C38.0483 20.508 37.6163 18.708 37.6163 16.668C37.6163 14.628 38.0603 12.828 38.9483 11.268C39.8603 9.70801 41.0963 8.50801 42.6563 7.66801C44.2163 6.80401 45.9563 6.37201 47.8763 6.37201C49.7963 6.37201 51.5363 6.80401 53.0963 7.66801C54.6563 8.50801 55.8803 9.70801 56.7683 11.268C57.6803 12.828 58.1363 14.628 58.1363 16.668C58.1363 18.708 57.6683 20.508 56.7323 22.068C55.8203 23.628 54.5723 24.84 52.9883 25.704C51.4283 26.544 49.6763 26.964 47.7323 26.964ZM47.7323 22.572C48.6443 22.572 49.4963 22.356 50.2883 21.924C51.1043 21.468 51.7523 20.796 52.2323 19.908C52.7123 19.02 52.9523 17.94 52.9523 16.668C52.9523 14.772 52.4483 13.32 51.4403 12.312C50.4563 11.28 49.2443 10.764 47.8043 10.764C46.3643 10.764 45.1523 11.28 44.1683 12.312C43.2083 13.32 42.7283 14.772 42.7283 16.668C42.7283 18.564 43.1963 20.028 44.1323 21.06C45.0923 22.068 46.2923 22.572 47.7323 22.572ZM89.4814 6.69601L83.6494 26.64H78.2134L74.5774 12.708L70.9414 26.64H65.4694L59.6014 6.69601H64.7134L68.2414 21.888L72.0574 6.69601H77.3854L81.1294 21.852L84.6574 6.69601H89.4814Z" fill="#264065"/>
<path d="M110.928 31.068L107.112 26.496C106.056 26.76 104.976 26.892 103.872 26.892C101.52 26.892 99.3604 26.34 97.3924 25.236C95.4244 24.132 93.8644 22.608 92.7124 20.664C91.5604 18.696 90.9844 16.476 90.9844 14.004C90.9844 11.556 91.5604 9.36001 92.7124 7.41601C93.8644 5.44801 95.4244 3.91201 97.3924 2.80801C99.3604 1.70401 101.52 1.15201 103.872 1.15201C106.248 1.15201 108.408 1.70401 110.352 2.80801C112.32 3.91201 113.868 5.44801 114.996 7.41601C116.148 9.36001 116.724 11.556 116.724 14.004C116.724 16.236 116.244 18.276 115.284 20.124C114.348 21.948 113.064 23.436 111.432 24.588L117.192 31.068H110.928ZM96.1684 14.004C96.1684 15.684 96.4924 17.16 97.1404 18.432C97.7884 19.704 98.6884 20.688 99.8404 21.384C101.016 22.056 102.36 22.392 103.872 22.392C105.384 22.392 106.716 22.056 107.868 21.384C109.02 20.688 109.92 19.704 110.568 18.432C111.216 17.16 111.54 15.684 111.54 14.004C111.54 12.324 111.216 10.86 110.568 9.61201C109.92 8.34001 109.02 7.36801 107.868 6.69601C106.716 6.02401 105.384 5.68801 103.872 5.68801C102.36 5.68801 101.016 6.02401 99.8404 6.69601C98.6884 7.36801 97.7884 8.34001 97.1404 9.61201C96.4924 10.86 96.1684 12.324 96.1684 14.004ZM139.372 6.69601V26.64H134.296V24.12C133.648 24.984 132.796 25.668 131.74 26.172C130.708 26.652 129.58 26.892 128.356 26.892C126.796 26.892 125.416 26.568 124.216 25.92C123.016 25.248 122.068 24.276 121.372 23.004C120.7 21.708 120.364 20.172 120.364 18.396V6.69601H125.404V17.676C125.404 19.26 125.8 20.484 126.592 21.348C127.384 22.188 128.464 22.608 129.832 22.608C131.224 22.608 132.316 22.188 133.108 21.348C133.9 20.484 134.296 19.26 134.296 17.676V6.69601H139.372ZM162.885 16.236C162.885 16.956 162.837 17.604 162.741 18.18H148.161C148.281 19.62 148.785 20.748 149.673 21.564C150.561 22.38 151.653 22.788 152.949 22.788C154.821 22.788 156.153 21.984 156.945 20.376H162.381C161.805 22.296 160.701 23.88 159.069 25.128C157.437 26.352 155.433 26.964 153.057 26.964C151.137 26.964 149.409 26.544 147.873 25.704C146.361 24.84 145.173 23.628 144.309 22.068C143.469 20.508 143.049 18.708 143.049 16.668C143.049 14.604 143.469 12.792 144.309 11.232C145.149 9.67201 146.325 8.47201 147.837 7.63201C149.349 6.79201 151.089 6.37201 153.057 6.37201C154.953 6.37201 156.645 6.78001 158.133 7.59601C159.645 8.41201 160.809 9.57601 161.625 11.088C162.465 12.576 162.885 14.292 162.885 16.236ZM157.665 14.796C157.641 13.5 157.173 12.468 156.261 11.7C155.349 10.908 154.233 10.512 152.913 10.512C151.665 10.512 150.609 10.896 149.745 11.664C148.905 12.408 148.389 13.452 148.197 14.796H157.665ZM185.104 16.236C185.104 16.956 185.056 17.604 184.96 18.18H170.38C170.5 19.62 171.004 20.748 171.892 21.564C172.78 22.38 173.872 22.788 175.168 22.788C177.04 22.788 178.372 21.984 179.164 20.376H184.6C184.024 22.296 182.92 23.88 181.288 25.128C179.656 26.352 177.652 26.964 175.276 26.964C173.356 26.964 171.628 26.544 170.092 25.704C168.58 24.84 167.392 23.628 166.528 22.068C165.688 20.508 165.268 18.708 165.268 16.668C165.268 14.604 165.688 12.792 166.528 11.232C167.368 9.67201 168.544 8.47201 170.056 7.63201C171.568 6.79201 173.308 6.37201 175.276 6.37201C177.172 6.37201 178.864 6.78001 180.352 7.59601C181.864 8.41201 183.028 9.57601 183.844 11.088C184.684 12.576 185.104 14.292 185.104 16.236ZM179.884 14.796C179.86 13.5 179.392 12.468 178.48 11.7C177.568 10.908 176.452 10.512 175.132 10.512C173.884 10.512 172.828 10.896 171.964 11.664C171.124 12.408 170.608 13.452 170.416 14.796H179.884ZM199.835 6.40801C202.211 6.40801 204.131 7.16401 205.595 8.67601C207.059 10.164 207.791 12.252 207.791 14.94V26.64H202.751V15.624C202.751 14.04 202.355 12.828 201.563 11.988C200.771 11.124 199.691 10.692 198.323 10.692C196.931 10.692 195.827 11.124 195.011 11.988C194.219 12.828 193.823 14.04 193.823 15.624V26.64H188.783V6.69601H193.823V9.18001C194.495 8.31601 195.347 7.64401 196.379 7.16401C197.435 6.66001 198.587 6.40801 199.835 6.40801Z" fill="#A9D6CB"/>
</svg>
